<?xml version="1.0" standalone="no"?>
<!DOCTYPE svg PUBLIC "-//W3C//DTD SVG 20010904//EN"
 "http://www.w3.org/TR/2001/REC-SVG-20010904/DTD/svg10.dtd">
<svg version="1.0" xmlns="http://www.w3.org/2000/svg"
 width="512.000000pt" height="512.000000pt" viewBox="0 0 512.000000 512.000000"
 preserveAspectRatio="xMidYMid meet">

<g transform="translate(0.000000,512.000000) scale(0.100000,-0.100000)"
fill="#000000" stroke="none">
<path d="M2960 5105 c-105 -17 -232 -56 -328 -102 -236 -112 -456 -332 -565
-566 -18 -37 -34 -66 -37 -64 -38 23 -150 69 -201 83 -86 24 -270 24 -359 1
-97 -25 -236 -99 -308 -164 -142 -126 -215 -273 -247 -494 l-5 -36 -61 24
c-243 98 -481 53 -660 -126 -111 -111 -166 -229 -176 -382 -22 -329 241 -623
566 -630 59 -2 67 1 88 25 29 34 29 78 1 111 -18 20 -35 27 -78 31 -233 24
-400 201 -400 426 0 210 153 386 364 419 146 23 273 -26 385 -148 63 -69 74
-77 107 -77 28 0 42 7 60 28 29 33 29 44 3 126 -28 85 -30 221 -5 304 62 208
223 359 430 403 152 32 333 -12 465 -113 32 -25 54 -34 82 -34 45 0 70 26 95
103 9 29 37 91 61 139 134 262 367 447 661 525 83 22 118 26 247 26 130 0 163
-3 247 -26 188 -50 338 -136 474 -271 212 -211 321 -504 294 -787 -5 -52 -14
-110 -20 -129 -15 -53 -12 -95 10 -122 32 -41 65 -41 150 2 180 92 361 70 505
-62 146 -134 175 -366 65 -535 -80 -121 -179 -177 -352 -198 -81 -10 -114 -83
-65 -141 21 -24 29 -27 88 -25 325 7 588 301 566 630 -10 153 -65 271 -176
382 -134 134 -303 194 -480 172 -47 -6 -94 -15 -105 -19 -18 -7 -18 -3 -12 67
15 163 -32 387 -118 565 -165 337 -465 570 -836 650 -104 22 -314 27 -420 9z"/>
<path d="M1693 3857 c-140 -139 -153 -156 -153 -188 0 -54 39 -84 103 -80 10
0 48 29 83 63 l64 61 0 -284 c0 -307 3 -323 54 -347 33 -17 69 -9 96 20 19 21
20 34 20 315 0 161 3 293 7 293 4 0 35 -27 68 -59 62 -62 81 -70 128 -58 38
10 61 64 46 104 -12 32 -251 277 -291 299 -54 28 -65 21 -225 -139z"/>
<path d="M3205 3998 c-44 -26 -44 -30 -45 -335 0 -161 -4 -293 -8 -293 -4 0
-32 25 -62 56 -65 66 -88 77 -130 63 -42 -15 -65 -60 -51 -102 11 -34 256
-285 299 -307 45 -23 74 -4 225 149 133 134 147 151 147 183 0 35 -25 68 -63
81 -29 11 -78 -17 -132 -72 l-50 -52 -5 295 c-5 279 -6 297 -25 315 -25 26
-74 35 -100 19z"/>
<path d="M1040 2891 c-73 -23 -137 -79 -169 -150 -22 -49 -24 -464 -2 -525 19
-54 77 -115 136 -142 l50 -24 1505 0 1505 0 50 24 c28 12 65 40 84 61 63 73
66 86 66 340 0 222 -1 232 -23 275 -30 58 -67 96 -117 123 l-40 22 -1510 2
c-830 1 -1521 -2 -1535 -6z m3025 -185 c33 -33 37 -68 33 -266 l-3 -172 -28
-24 -28 -24 -1479 0 -1479 0 -28 24 -28 24 -3 172 c-4 198 0 233 33 266 l24
24 1481 0 1481 0 24 -24z"/>
<path d="M3672 2613 c-98 -48 -118 -179 -38 -259 59 -59 154 -65 220 -13 88
69 73 225 -27 272 -44 21 -112 21 -155 0z"/>
<path d="M1189 2531 c-17 -18 -29 -40 -29 -56 0 -16 12 -38 29 -56 l29 -29
840 0 839 0 27 26 c42 43 33 104 -21 132 -16 9 -240 12 -853 12 l-832 0 -29
-29z"/>
<path d="M3092 2550 c-27 -11 -51 -62 -44 -96 2 -13 16 -33 30 -44 22 -18 40
-20 167 -20 140 0 143 0 169 26 37 38 36 84 -5 118 -30 25 -35 26 -162 25 -73
0 -142 -4 -155 -9z"/>
<path d="M1047 1866 c-74 -20 -127 -63 -162 -131 l-30 -59 0 -225 c0 -208 2
-230 21 -271 26 -58 76 -108 134 -134 l45 -21 1505 0 1505 0 45 21 c58 26 108
76 134 134 19 41 21 63 21 270 0 190 -3 231 -17 262 -29 65 -68 107 -126 135
l-57 28 -1485 2 c-1195 1 -1494 -1 -1533 -11z m3020 -189 l28 -27 0 -200 0
-200 -28 -27 -27 -28 -1480 0 -1480 0 -27 28 -28 27 -3 178 c-4 207 3 246 51
267 27 12 264 14 1499 12 l1468 -2 27 -28z"/>
<path d="M3741 1609 c-39 -8 -76 -34 -105 -73 -29 -39 -29 -133 0 -173 74 -99
204 -99 278 0 29 40 29 134 0 173 -44 60 -108 87 -173 73z"/>
<path d="M1243 1533 c-30 -6 -63 -49 -63 -84 0 -15 11 -41 24 -56 l24 -28 817
-3 c560 -2 828 1 856 8 81 22 89 124 13 156 -28 12 -175 14 -841 13 -444 -1
-818 -4 -830 -6z"/>
<path d="M3163 1533 c-31 -6 -63 -50 -63 -85 0 -69 66 -93 240 -86 91 3 103 6
126 29 35 35 35 82 0 117 -26 26 -30 27 -154 29 -70 0 -137 -1 -149 -4z"/>
<path d="M1005 826 c-59 -27 -117 -88 -136 -142 -10 -29 -14 -99 -14 -264 0
-216 1 -227 23 -270 35 -66 79 -107 139 -130 53 -20 79 -20 1542 -20 1624 0
1531 -3 1608 56 87 66 107 150 101 417 -5 201 -13 234 -71 296 -18 18 -54 44
-82 57 l-50 24 -1505 0 -1505 0 -50 -24z m3062 -170 l28 -24 3 -175 c4 -202
-4 -249 -48 -272 -25 -13 -208 -15 -1489 -15 -943 0 -1469 4 -1486 10 -48 18
-57 62 -53 267 l3 185 28 24 28 24 1479 0 1479 0 28 -24z"/>
<path d="M3704 576 c-17 -8 -44 -30 -59 -50 -61 -80 -35 -196 55 -243 55 -29
95 -29 150 0 50 26 90 90 90 141 -1 46 -33 110 -70 136 -41 29 -121 37 -166
16z"/>
<path d="M1205 485 c-37 -36 -34 -86 6 -119 l31 -26 826 0 c647 0 832 3 852
13 53 27 62 96 18 137 -22 20 -32 20 -865 20 l-844 0 -24 -25z"/>
<path d="M3126 484 c-35 -36 -34 -77 3 -115 l29 -29 132 0 c147 0 185 11 197
58 11 41 5 65 -23 90 -24 21 -34 22 -168 22 -141 0 -144 0 -170 -26z"/>
</g>
</svg>
