<?xml version="1.0" standalone="no"?>
<!DOCTYPE svg PUBLIC "-//W3C//DTD SVG 20010904//EN"
 "http://www.w3.org/TR/2001/REC-SVG-20010904/DTD/svg10.dtd">
<svg version="1.0" xmlns="http://www.w3.org/2000/svg"
 width="512.000000pt" height="512.000000pt" viewBox="0 0 512.000000 512.000000"
 preserveAspectRatio="xMidYMid meet">

<g transform="translate(0.000000,512.000000) scale(0.100000,-0.100000)"
fill="#000000" stroke="none">
<path d="M2220 5110 c-349 -44 -661 -182 -928 -411 -171 -148 -215 -220 -164
-271 41 -42 75 -30 160 58 213 221 465 367 752 437 286 71 576 59 851 -33 402
-134 721 -410 907 -785 27 -55 55 -117 61 -137 22 -66 55 -84 168 -91 351 -23
678 -239 835 -552 182 -361 127 -800 -140 -1114 -51 -60 -58 -99 -24 -133 28
-29 75 -28 108 3 54 50 147 185 194 283 280 576 47 1259 -527 1546 -130 64
-259 101 -408 115 l-71 7 -22 57 c-34 86 -126 247 -191 334 -262 351 -613 575
-1035 663 -137 28 -395 40 -526 24z"/>
<path d="M950 4257 c-31 -15 -67 -81 -121 -217 -62 -157 -86 -260 -115 -497
-4 -37 -8 -42 -37 -48 -73 -16 -195 -71 -277 -126 -179 -120 -300 -287 -366
-505 -25 -80 -27 -104 -27 -244 0 -139 2 -164 26 -243 111 -363 396 -606 759
-646 54 -6 174 -11 268 -11 l170 0 0 -205 c0 -251 3 -245 -120 -245 l-80 0
-15 37 c-37 90 -150 163 -250 163 -144 0 -275 -131 -275 -275 0 -144 131 -275
275 -275 100 0 213 73 250 163 l15 37 81 0 c106 0 155 15 204 65 59 58 65 91
65 329 l0 206 235 0 235 0 0 -108 c0 -95 2 -111 20 -130 28 -30 82 -30 110 0
18 19 20 35 20 130 l0 108 240 0 240 0 0 -348 c0 -337 1 -349 20 -370 28 -30
82 -30 110 0 19 21 20 33 20 370 l0 348 240 0 240 0 0 -486 c0 -356 3 -498 12
-528 16 -53 81 -118 134 -134 23 -6 78 -12 123 -12 l81 0 15 -37 c37 -90 150
-163 250 -163 144 0 275 131 275 275 0 144 -131 275 -275 275 -100 0 -213 -73
-250 -163 l-15 -37 -80 0 c-131 0 -120 -47 -120 525 l0 485 235 0 235 0 0
-206 c0 -238 6 -271 65 -329 49 -50 98 -65 204 -65 l81 0 15 -37 c37 -90 150
-163 250 -163 144 0 275 131 275 275 0 144 -131 275 -275 275 -100 0 -213 -73
-250 -163 l-15 -37 -80 0 c-123 0 -120 -6 -120 244 l0 203 143 6 c109 4 164
11 235 31 113 31 229 80 260 108 32 30 30 80 -4 107 -36 28 -49 27 -136 -13
-41 -19 -112 -45 -159 -58 l-84 -23 -1670 0 c-1568 0 -1675 1 -1746 18 -260
61 -473 270 -546 537 -24 89 -24 289 1 380 73 271 289 480 563 545 105 25 114
37 129 187 22 217 60 358 140 527 24 51 44 108 44 126 0 52 -54 85 -100 62z
m-129 -2952 c37 -20 69 -70 69 -110 0 -62 -63 -125 -125 -125 -61 0 -125 63
-125 123 0 63 62 127 123 127 15 0 41 -7 58 -15z m3580 0 c37 -20 69 -70 69
-110 0 -62 -63 -125 -125 -125 -61 0 -125 63 -125 123 0 63 62 127 123 127 15
0 41 -7 58 -15z m-620 -560 c37 -20 69 -70 69 -110 0 -62 -63 -125 -125 -125
-61 0 -125 63 -125 123 0 63 62 127 123 127 15 0 41 -7 58 -15z"/>
<path d="M1870 1228 c-19 -21 -20 -34 -20 -250 0 -277 4 -268 -120 -268 l-80
0 -15 38 c-37 89 -150 162 -250 162 -144 0 -275 -131 -275 -275 0 -144 131
-275 275 -275 100 0 213 73 250 163 l15 37 81 0 c106 0 155 15 204 65 59 59
65 89 65 352 0 217 -1 230 -20 251 -14 14 -33 22 -55 22 -22 0 -41 -8 -55 -22z
m-429 -483 c37 -20 69 -70 69 -110 0 -62 -63 -125 -125 -125 -61 0 -125 63
-125 123 0 63 62 127 123 127 15 0 41 -7 58 -15z"/>
<path d="M2500 748 c-17 -19 -20 -35 -20 -115 l0 -93 -37 -15 c-90 -37 -163
-150 -163 -250 0 -144 131 -275 275 -275 144 0 275 131 275 275 0 100 -73 213
-162 250 l-38 15 0 93 c0 109 -15 137 -75 137 -22 0 -41 -8 -55 -22z m111
-363 c37 -20 69 -70 69 -110 0 -62 -63 -125 -125 -125 -61 0 -125 63 -125 123
0 63 62 127 123 127 15 0 41 -7 58 -15z"/>
</g>
</svg>
