<?xml version="1.0" standalone="no"?>
<!DOCTYPE svg PUBLIC "-//W3C//DTD SVG 20010904//EN"
 "http://www.w3.org/TR/2001/REC-SVG-20010904/DTD/svg10.dtd">
<svg version="1.0" xmlns="http://www.w3.org/2000/svg"
 width="512.000000pt" height="512.000000pt" viewBox="0 0 512.000000 512.000000"
 preserveAspectRatio="xMidYMid meet">

<g transform="translate(0.000000,512.000000) scale(0.100000,-0.100000)"
fill="#000000" stroke="none">
<path d="M2095 5100 c-78 -26 -146 -77 -190 -144 -36 -54 -50 -100 -119 -406
l-26 -115 -114 -58 c-63 -31 -157 -86 -210 -121 l-96 -64 -202 64 c-234 75
-304 85 -393 59 -70 -20 -153 -73 -187 -118 -55 -73 -407 -696 -422 -746 -21
-71 -20 -136 2 -208 28 -88 56 -124 233 -288 l161 -150 0 -245 0 -245 -161
-150 c-88 -82 -172 -166 -186 -185 -33 -45 -65 -149 -65 -209 0 -26 7 -72 16
-102 23 -76 396 -719 448 -771 23 -23 70 -55 106 -72 59 -28 74 -31 155 -30
82 1 108 7 293 67 l203 66 95 -64 c52 -35 145 -89 207 -121 61 -31 113 -58
115 -59 2 -2 25 -99 52 -217 26 -117 53 -226 60 -243 20 -52 86 -130 137 -163
96 -61 116 -63 580 -60 l418 3 67 33 c77 38 158 119 182 184 9 24 38 137 64
252 l47 209 111 56 c61 31 156 87 211 123 l100 67 204 -66 c187 -61 211 -66
294 -67 83 -1 96 2 157 32 42 21 83 50 110 81 47 53 418 691 439 756 20 61 15
170 -10 236 -30 80 -57 111 -230 269 l-155 141 0 249 0 249 154 141 c166 152
210 204 237 284 21 63 21 174 -1 234 -26 72 -388 690 -434 743 -27 31 -68 60
-110 81 -61 30 -74 33 -157 32 -83 0 -106 -5 -294 -66 l-205 -67 -99 67 c-55
36 -150 91 -211 123 l-111 56 -46 208 c-26 113 -55 227 -64 251 -25 67 -105
148 -183 186 l-67 33 -425 2 c-399 2 -429 1 -485 -17z m855 -315 c7 -9 39
-130 70 -270 35 -155 66 -267 79 -288 22 -36 41 -48 161 -98 103 -43 211 -107
330 -194 65 -47 113 -75 138 -80 30 -5 87 10 292 75 140 44 262 80 271 80 9 0
21 -6 27 -12 11 -15 331 -568 356 -615 9 -17 13 -39 10 -47 -3 -9 -94 -97
-201 -197 -107 -100 -202 -196 -210 -215 -14 -29 -15 -47 -5 -141 15 -137 15
-308 1 -444 -11 -98 -10 -109 7 -145 12 -24 91 -105 207 -214 104 -96 193
-183 198 -192 7 -12 5 -28 -7 -50 -26 -51 -345 -601 -356 -615 -6 -7 -18 -13
-27 -13 -9 0 -130 36 -269 80 -139 44 -262 80 -273 80 -35 0 -82 -26 -179 -99
-62 -47 -146 -97 -240 -142 -213 -104 -213 -104 -234 -138 -10 -18 -44 -147
-76 -287 -32 -140 -63 -261 -70 -269 -11 -13 -68 -15 -385 -15 -342 0 -373 1
-387 18 -9 9 -41 132 -73 272 -31 140 -61 262 -65 270 -18 34 -61 62 -158 104
-120 53 -239 123 -357 210 -51 38 -99 66 -121 71 -31 5 -85 -8 -301 -76 -202
-64 -268 -81 -281 -73 -9 6 -100 154 -201 329 -156 269 -183 321 -175 340 5
13 95 102 201 199 226 208 231 216 214 340 -14 100 -14 372 0 472 17 124 12
132 -214 340 -106 97 -196 186 -201 199 -8 20 18 70 175 341 101 174 191 322
201 328 12 7 81 -10 280 -73 217 -68 271 -81 301 -76 23 5 72 33 128 75 121
90 226 151 351 206 158 68 152 59 223 373 33 145 65 270 73 277 11 11 85 14
386 14 323 0 375 -2 386 -15z"/>
<path d="M2480 3624 c-14 -2 -58 -9 -98 -15 -96 -14 -225 -58 -321 -110 -261
-140 -448 -376 -529 -667 -24 -88 -27 -113 -27 -272 0 -159 3 -184 27 -270
122 -438 474 -738 926 -790 123 -15 271 -1 398 36 363 105 643 393 741 762 23
86 26 116 26 262 0 146 -3 176 -26 262 -98 370 -378 657 -740 762 -119 35
-290 52 -377 40z m277 -345 c217 -55 416 -234 501 -449 39 -100 46 -143 46
-270 0 -127 -7 -170 -46 -270 -39 -99 -90 -174 -177 -260 -147 -146 -307 -212
-516 -213 -291 -1 -544 157 -670 418 -53 110 -75 205 -75 325 0 316 193 592
488 700 145 53 294 59 449 19z"/>
</g>
</svg>
