<?xml version="1.0" standalone="no"?>
<!DOCTYPE svg PUBLIC "-//W3C//DTD SVG 20010904//EN"
 "http://www.w3.org/TR/2001/REC-SVG-20010904/DTD/svg10.dtd">
<svg version="1.0" xmlns="http://www.w3.org/2000/svg"
 width="512.000000pt" height="512.000000pt" viewBox="0 0 512.000000 512.000000"
 preserveAspectRatio="xMidYMid meet">

<g transform="translate(0.000000,512.000000) scale(0.100000,-0.100000)"
fill="#000000" stroke="none">
<path d="M1880 4831 c-625 -274 -656 -289 -673 -322 -17 -32 -17 -78 -14 -764
3 -648 6 -738 21 -805 41 -176 137 -349 263 -472 55 -54 713 -538 971 -715 75
-51 133 -58 192 -22 111 68 937 674 998 733 128 123 226 297 268 476 15 67 18
154 21 805 3 686 3 732 -14 765 -17 33 -47 47 -673 322 -360 158 -666 287
-680 287 -14 -1 -320 -130 -680 -288z m1275 -150 l590 -258 0 -719 c0 -812 5
-757 -82 -926 -77 -150 -121 -189 -639 -562 l-464 -335 -327 236 c-684 493
-694 501 -776 661 -87 169 -82 114 -82 926 l0 719 590 258 c325 142 592 258
595 259 3 0 271 -117 595 -259z"/>
<path d="M2065 4539 c-264 -116 -490 -220 -502 -231 l-23 -21 0 -620 c0 -690
-1 -680 68 -812 20 -38 62 -96 92 -127 32 -33 219 -176 445 -338 334 -241 394
-281 420 -278 41 5 757 520 845 608 39 39 79 93 102 135 69 132 68 123 68 812
l0 620 -23 21 c-23 22 -974 442 -998 442 -8 -1 -230 -95 -494 -211z m928 -159
l418 -183 -3 -586 -3 -586 -28 -59 c-15 -33 -43 -79 -63 -103 -35 -42 -730
-553 -753 -553 -21 0 -695 490 -740 538 -24 26 -58 76 -75 112 l-31 65 -3 586
-3 585 423 186 c233 102 428 185 433 183 6 -1 198 -85 428 -185z"/>
<path d="M3040 4087 c-16 -8 -141 -186 -346 -492 -176 -264 -324 -480 -327
-480 -3 0 -63 43 -133 95 -70 52 -138 101 -151 108 -69 38 -151 -49 -109 -113
19 -29 361 -289 393 -299 58 -19 57 -20 434 546 197 296 359 545 359 554 0 31
-30 72 -61 83 -18 6 -32 11 -33 11 -1 0 -12 -6 -26 -13z"/>
<path d="M200 2871 c-124 -38 -212 -170 -196 -293 9 -65 365 -848 432 -949 32
-49 145 -172 340 -369 l291 -295 -21 -35 c-20 -34 -21 -47 -21 -420 0 -430 -1
-421 72 -477 l36 -28 511 -3 c573 -3 571 -3 624 66 l27 35 3 402 3 401 -23 34
c-30 43 -67 70 -109 79 l-34 7 -6 159 c-3 88 -11 180 -17 205 -63 253 -202
442 -392 531 -261 123 -361 184 -505 305 -118 99 -166 119 -290 119 -88 0
-107 -3 -159 -28 -32 -15 -60 -26 -61 -25 -1 2 -39 91 -85 198 -108 256 -121
281 -172 324 -64 55 -172 80 -248 57z m132 -181 c18 -13 56 -91 123 -247 117
-275 153 -348 213 -433 64 -90 500 -527 534 -536 58 -13 117 47 103 104 -4 17
-99 120 -249 272 -134 135 -249 255 -255 267 -10 20 -8 24 28 43 48 24 126 26
176 6 19 -8 68 -43 107 -76 148 -125 272 -199 548 -328 109 -51 214 -188 267
-347 23 -69 27 -101 31 -238 l4 -157 -349 0 -348 0 -336 338 c-185 185 -350
360 -367 387 -42 68 -392 841 -392 866 0 79 101 128 162 79z m1798 -2180 l0
-340 -467 2 -468 3 -3 338 -2 337 470 0 470 0 0 -340z"/>
<path d="M1755 588 c-51 -29 -61 -93 -20 -133 21 -22 33 -25 100 -25 67 0 79
3 100 25 37 36 34 86 -6 119 -26 22 -40 26 -92 26 -34 0 -71 -6 -82 -12z"/>
<path d="M4740 2859 c-58 -26 -106 -72 -135 -129 -12 -25 -60 -133 -105 -240
-46 -107 -84 -196 -86 -198 -1 -2 -13 3 -26 11 -87 55 -247 62 -348 15 -30
-14 -105 -66 -167 -116 -131 -106 -258 -183 -416 -253 -177 -78 -281 -174
-366 -338 -73 -143 -93 -224 -100 -416 l-6 -169 -34 -7 c-42 -9 -79 -36 -109
-79 l-23 -34 3 -400 3 -401 24 -34 c13 -18 42 -42 65 -52 38 -17 75 -19 544
-19 481 0 504 1 541 20 48 24 78 60 91 112 7 24 10 170 8 401 -3 347 -4 363
-24 397 l-21 35 291 295 c195 197 308 320 340 369 72 108 426 892 433 957 12
110 -48 218 -149 268 -67 33 -161 36 -228 5z m159 -163 c28 -15 51 -53 51 -86
0 -24 -352 -799 -393 -865 -17 -27 -182 -202 -366 -387 l-335 -338 -349 0
-349 0 4 157 c4 137 8 169 31 238 53 159 158 296 267 347 277 129 397 201 553
332 42 35 93 70 113 76 47 16 145 8 178 -13 23 -15 25 -21 15 -40 -7 -12 -119
-130 -250 -262 -131 -132 -243 -253 -248 -268 -27 -70 46 -134 114 -101 42 19
446 428 510 515 60 82 100 161 220 442 67 155 105 234 123 247 29 24 72 26
111 6z m-971 -2183 l-3 -338 -467 -3 -468 -2 0 340 0 340 470 0 470 0 -2 -337z"/>
<path d="M3191 574 c-40 -33 -43 -83 -6 -119 21 -22 33 -25 100 -25 67 0 79 3
100 25 17 16 25 35 25 57 -1 61 -40 88 -129 88 -49 0 -65 -4 -90 -26z"/>
</g>
</svg>
